<?xml version="1.0" standalone="no"?>
<!DOCTYPE svg PUBLIC "-//W3C//DTD SVG 20010904//EN"
 "http://www.w3.org/TR/2001/REC-SVG-20010904/DTD/svg10.dtd">
<svg version="1.0" xmlns="http://www.w3.org/2000/svg"
 width="512.000000pt" height="512.000000pt" viewBox="0 0 512.000000 512.000000"
 preserveAspectRatio="xMidYMid meet">
<metadata>
Created by potrace 1.14, written by Peter Selinger 2001-2017
</metadata>
<g transform="translate(0.000000,512.000000) scale(0.100000,-0.100000)"
fill="#000000" stroke="none">
<path d="M1125 4000 c-120 -27 -219 -135 -239 -260 -11 -62 -7 -2312 4 -2368
44 -233 295 -334 461 -184 56 50 87 102 104 178 9 35 12 183 13 485 l0 434
1069 3 1069 2 0 -412 c-1 -227 2 -442 6 -476 25 -216 226 -344 403 -257 93 45
159 142 173 255 4 30 7 566 6 1190 -1 1281 3 1203 -78 1303 -84 104 -208 137
-324 87 -70 -30 -147 -118 -167 -190 -15 -53 -19 -156 -19 -520 l-1 -435
-1067 -3 -1068 -2 -1 22 c0 13 -1 209 -1 437 0 433 -4 476 -46 557 -55 108
-191 178 -297 154z"/>
<path d="M426 3546 c-47 -18 -91 -58 -119 -111 -22 -40 -22 -42 -22 -855 -1
-448 2 -833 7 -856 11 -52 69 -121 122 -145 45 -20 131 -25 185 -9 55 15 99
51 128 105 l27 50 1 825 c0 763 -1 828 -18 871 -20 53 -67 102 -117 122 -47
19 -146 20 -194 3z"/>
<path d="M4455 3536 c-51 -27 -93 -76 -113 -133 -7 -22 -10 -287 -9 -855 2
-778 3 -825 20 -860 23 -45 61 -84 102 -105 40 -21 153 -29 199 -13 49 16 102
63 129 114 21 41 21 44 22 855 0 574 -3 827 -11 858 -14 55 -39 89 -92 127
-35 25 -53 30 -119 33 -69 4 -84 1 -128 -21z"/>
<path d="M47 2989 c-44 -26 -47 -48 -47 -416 0 -204 4 -363 10 -384 23 -82
121 -91 155 -14 12 27 15 701 4 747 -15 61 -75 94 -122 67z"/>
<path d="M4982 2978 c-11 -13 -25 -34 -30 -48 -6 -19 -10 -645 -3 -733 2 -27
56 -77 84 -77 32 0 66 31 77 71 14 48 13 708 -1 747 -20 59 -88 81 -127 40z"/>
</g>
</svg>
